                    <svg width="20" 
                        height="20" 
                        viewBox="0 0 20 20" 
                        fill="none" 
                        xmlns="http://www.w3.org/2000/svg">
                        <path d="M0 0C11.0457 0 20 8.95431 20 20H17.5781C17.5781 10.2919 9.70813 2.42188 0 2.42188V0Z" fill="#001125"/>
                        <path d="M0 6.32812C7.55077 6.32812 13.6719 12.4492 13.6719 20H10.8662C10.697 13.8993 5.94679 8.96904 0 8.6709V6.32812Z" fill="#001125"/>
                        <path d="M0 12.1875C4.31472 12.1875 7.8125 15.6853 7.8125 20H5.23145C5.06254 16.8873 2.84442 14.3653 0 13.957V12.1875Z" fill="#001125"/>
                        <path d="M0 16.875C1.72589 16.875 3.125 18.2741 3.125 20H0V16.875Z" fill="#001125"/>
                    </svg>